<svg width="90" height="90" viewBox="0 0 90 90" fill="none" xmlns="http://www.w3.org/2000/svg">
<rect width="90" height="90" rx="16" fill="white"/>
<path fill-rule="evenodd" clip-rule="evenodd" d="M64.6694 69.6235C64.2671 70.4855 63.4037 70.9993 62.3605 70.9993H58.3293C57.1583 70.9993 56.2831 70.5246 55.8221 69.6699L49.8475 60.8814L55.0779 53.6801L64.2098 66.868C65.2121 68.0939 64.865 69.2038 64.6694 69.6235" fill="#74BB11"/>
<path fill-rule="evenodd" clip-rule="evenodd" d="M33.1716 69.7701L33.1663 69.778C32.2555 71 31.0437 71 30.6452 71H26.7023C25.6921 71 24.8649 70.5326 24.4329 69.719C23.9883 68.8856 24.0825 67.8844 24.6976 66.9568L39.3043 46.5711L22.5078 22.9855C21.921 22.0984 21.8387 21.1124 22.2819 20.2797C22.7166 19.4661 23.5444 19 24.5527 19H28.5832C29.6198 19 30.5313 19.5417 30.9871 20.395L49.7875 46.4769L33.1716 69.7701Z" fill="#009CD9"/>
<path fill-rule="evenodd" clip-rule="evenodd" d="M66.6748 22.7793L54.956 38.9707L49.8013 31.8165L59.0689 19.364L59.3099 19.2579C59.6777 19.0915 60.0757 19.0039 60.4789 19.0007H64.4205C65.3728 19.0007 66.1809 19.4263 66.6386 20.1703C67.1075 20.9328 67.1207 21.8829 66.6748 22.7793" fill="#EB2084"/>
</svg>
