<svg width="90" height="90" viewBox="0 0 90 90" fill="none" xmlns="http://www.w3.org/2000/svg">
<rect width="90" height="90" rx="16" fill="white"/>
<g clip-path="url(#clip0_1830_799)">
<mask id="mask0_1830_799" style="mask-type:alpha" maskUnits="userSpaceOnUse" x="18" y="18" width="54" height="54">
<path fill-rule="evenodd" clip-rule="evenodd" d="M56.2924 71.6312C57.1429 71.9626 58.1127 71.9414 58.9712 71.5283L70.0888 66.1786C71.2571 65.6165 72 64.4342 72 63.1371V26.8632C72 25.5661 71.2571 24.3838 70.0889 23.8216L58.9712 18.4718C57.8445 17.9297 56.5261 18.0625 55.5373 18.7814C55.3961 18.884 55.2615 18.9987 55.1353 19.125L33.8518 38.5424L24.5811 31.5052C23.7181 30.8501 22.511 30.9038 21.7094 31.6329L18.736 34.3376C17.7556 35.2295 17.7545 36.7719 18.7336 37.6652L26.7734 45.0001L18.7336 52.3349C17.7545 53.2282 17.7556 54.7707 18.736 55.6625L21.7094 58.3672C22.511 59.0963 23.7181 59.15 24.5811 58.4949L33.8518 51.4577L55.1353 70.875C55.4719 71.2119 55.8673 71.4656 56.2924 71.6312ZM58.5082 32.7414L42.3589 45.0001L58.5082 57.2587V32.7414Z" fill="white"/>
</mask>
<g mask="url(#mask0_1830_799)">
<path d="M70.0891 23.8304L58.9627 18.4732C57.6748 17.8531 56.1357 18.1147 55.125 19.1254L18.7012 52.3354C17.7215 53.2286 17.7227 54.771 18.7037 55.6628L21.6789 58.3676C22.4809 59.0967 23.6887 59.1504 24.5523 58.4953L68.4149 25.2202C69.8864 24.1038 72 25.1534 72 27.0005V26.8713C72 25.5747 71.2573 24.3928 70.0891 23.8304Z" fill="#0065A9"/>
<g filter="url(#filter0_d_1830_799)">
<path d="M70.0891 66.17L58.9627 71.5272C57.6748 72.1474 56.1357 71.8857 55.125 70.875L18.7012 37.6651C17.7215 36.7719 17.7227 35.2294 18.7037 34.3376L21.6789 31.6328C22.4809 30.9037 23.6887 30.8501 24.5523 31.5051L68.4149 64.7802C69.8864 65.8966 72 64.847 72 63V63.1292C72 64.4257 71.2573 65.6076 70.0891 66.17Z" fill="#007ACC"/>
</g>
<g filter="url(#filter1_d_1830_799)">
<path d="M58.9632 71.5282C57.6749 72.148 56.1358 71.8858 55.125 70.875C56.3705 72.1204 58.5 71.2383 58.5 69.477V20.5229C58.5 18.7616 56.3705 17.8795 55.125 19.125C56.1358 18.1142 57.6749 17.8522 58.9632 18.4718L70.0877 23.8216C71.2566 24.3837 72 25.566 72 26.8631V63.137C72 64.4341 71.2566 65.6164 70.0876 66.1786L58.9632 71.5282Z" fill="#1F9CF0"/>
</g>
<g style="mix-blend-mode:overlay" opacity="0.25">
<path style="mix-blend-mode:overlay" fill-rule="evenodd" clip-rule="evenodd" d="M56.2596 71.6313C57.1101 71.9626 58.0799 71.9413 58.9383 71.5283L70.056 66.1787C71.2242 65.6165 71.9672 64.4342 71.9672 63.1371V26.8632C71.9672 25.5661 71.2243 24.3837 70.0561 23.8216L58.9383 18.4718C57.8118 17.9297 56.4933 18.0625 55.5045 18.7813C55.3632 18.884 55.2287 18.9987 55.1024 19.125L33.8189 38.5424L24.5483 31.5052C23.6853 30.8501 22.4781 30.9038 21.6766 31.6329L18.7032 34.3376C17.7228 35.2295 17.7217 36.7719 18.7008 37.6652L26.7406 45L18.7008 52.335C17.7217 53.2282 17.7228 54.7706 18.7032 55.6624L21.6766 58.3672C22.4781 59.0963 23.6853 59.15 24.5483 58.4949L33.8189 51.4577L55.1024 70.8751C55.4391 71.2119 55.8345 71.4657 56.2596 71.6313ZM58.4754 32.7414L42.3261 45L58.4754 57.2587V32.7414Z" fill="url(#paint0_linear_1830_799)"/>
</g>
</g>
</g>
<defs>
<filter id="filter0_d_1830_799" x="9.63384" y="22.7143" width="70.6995" height="57.4793" filterUnits="userSpaceOnUse" color-interpolation-filters="sRGB">
<feFlood flood-opacity="0" result="BackgroundImageFix"/>
<feColorMatrix in="SourceAlpha" type="matrix" values="0 0 0 0 0 0 0 0 0 0 0 0 0 0 0 0 0 0 127 0" result="hardAlpha"/>
<feOffset/>
<feGaussianBlur stdDeviation="4.16667"/>
<feColorMatrix type="matrix" values="0 0 0 0 0 0 0 0 0 0 0 0 0 0 0 0 0 0 0.25 0"/>
<feBlend mode="overlay" in2="BackgroundImageFix" result="effect1_dropShadow_1830_799"/>
<feBlend mode="normal" in="SourceGraphic" in2="effect1_dropShadow_1830_799" result="shape"/>
</filter>
<filter id="filter1_d_1830_799" x="46.7917" y="9.80584" width="33.5417" height="70.3884" filterUnits="userSpaceOnUse" color-interpolation-filters="sRGB">
<feFlood flood-opacity="0" result="BackgroundImageFix"/>
<feColorMatrix in="SourceAlpha" type="matrix" values="0 0 0 0 0 0 0 0 0 0 0 0 0 0 0 0 0 0 127 0" result="hardAlpha"/>
<feOffset/>
<feGaussianBlur stdDeviation="4.16667"/>
<feColorMatrix type="matrix" values="0 0 0 0 0 0 0 0 0 0 0 0 0 0 0 0 0 0 0.25 0"/>
<feBlend mode="overlay" in2="BackgroundImageFix" result="effect1_dropShadow_1830_799"/>
<feBlend mode="normal" in="SourceGraphic" in2="effect1_dropShadow_1830_799" result="shape"/>
</filter>
<linearGradient id="paint0_linear_1830_799" x1="44.9672" y1="18.1392" x2="44.9672" y2="71.8609" gradientUnits="userSpaceOnUse">
<stop stop-color="white"/>
<stop offset="1" stop-color="white" stop-opacity="0"/>
</linearGradient>
<clipPath id="clip0_1830_799">
<rect width="54" height="54" fill="white" transform="translate(18 18)"/>
</clipPath>
</defs>
</svg>
